<mxfile host="65bd71144e">
    <diagram id="vnZnYTLATLlWpTeRoft_" name="db-structure">
        <mxGraphModel dx="1309" dy="725" grid="1" gridSize="10" guides="1" tooltips="1" connect="1" arrows="1" fold="1" page="1" pageScale="1" pageWidth="850" pageHeight="1100" math="0" shadow="0">
            <root>
                <mxCell id="0"/>
                <mxCell id="1" parent="0"/>
                <mxCell id="2" value="Routine Table" style="swimlane;fontStyle=0;childLayout=stackLayout;horizontal=1;startSize=26;fillColor=none;horizontalStack=0;resizeParent=1;resizeParentMax=0;resizeLast=0;collapsible=1;marginBottom=0;" vertex="1" parent="1">
                    <mxGeometry x="70" y="470" width="190" height="130" as="geometry"/>
                </mxCell>
                <mxCell id="3" value="pk_id: int (auto increment)" style="text;strokeColor=none;fillColor=none;align=left;verticalAlign=top;spacingLeft=4;spacingRight=4;overflow=hidden;rotatable=0;points=[[0,0.5],[1,0.5]];portConstraint=eastwest;fontStyle=4" vertex="1" parent="2">
                    <mxGeometry y="26" width="190" height="26" as="geometry"/>
                </mxCell>
                <mxCell id="4" value="routine-name: varchar (255)" style="text;strokeColor=none;fillColor=none;align=left;verticalAlign=top;spacingLeft=4;spacingRight=4;overflow=hidden;rotatable=0;points=[[0,0.5],[1,0.5]];portConstraint=eastwest;" vertex="1" parent="2">
                    <mxGeometry y="52" width="190" height="26" as="geometry"/>
                </mxCell>
                <mxCell id="5" value="activity-list: varchar(255)" style="text;strokeColor=none;fillColor=none;align=left;verticalAlign=top;spacingLeft=4;spacingRight=4;overflow=hidden;rotatable=0;points=[[0,0.5],[1,0.5]];portConstraint=eastwest;" vertex="1" parent="2">
                    <mxGeometry y="78" width="190" height="26" as="geometry"/>
                </mxCell>
                <mxCell id="6" value="fk_user_id: int" style="text;strokeColor=none;fillColor=none;align=left;verticalAlign=top;spacingLeft=4;spacingRight=4;overflow=hidden;rotatable=0;points=[[0,0.5],[1,0.5]];portConstraint=eastwest;fontStyle=2" vertex="1" parent="2">
                    <mxGeometry y="104" width="190" height="26" as="geometry"/>
                </mxCell>
                <mxCell id="7" value="Activity Table" style="swimlane;fontStyle=0;childLayout=stackLayout;horizontal=1;startSize=26;fillColor=none;horizontalStack=0;resizeParent=1;resizeParentMax=0;resizeLast=0;collapsible=1;marginBottom=0;" vertex="1" parent="1">
                    <mxGeometry x="450" y="300" width="210" height="208" as="geometry"/>
                </mxCell>
                <mxCell id="8" value="pk_id: int (auto increment)" style="text;strokeColor=none;fillColor=none;align=left;verticalAlign=top;spacingLeft=4;spacingRight=4;overflow=hidden;rotatable=0;points=[[0,0.5],[1,0.5]];portConstraint=eastwest;fontStyle=4" vertex="1" parent="7">
                    <mxGeometry y="26" width="210" height="26" as="geometry"/>
                </mxCell>
                <mxCell id="17" value="activity-name: varchar (255)" style="text;strokeColor=none;fillColor=none;align=left;verticalAlign=top;spacingLeft=4;spacingRight=4;overflow=hidden;rotatable=0;points=[[0,0.5],[1,0.5]];portConstraint=eastwest;" vertex="1" parent="7">
                    <mxGeometry y="52" width="210" height="26" as="geometry"/>
                </mxCell>
                <mxCell id="18" value="duration: time" style="text;strokeColor=none;fillColor=none;align=left;verticalAlign=top;spacingLeft=4;spacingRight=4;overflow=hidden;rotatable=0;points=[[0,0.5],[1,0.5]];portConstraint=eastwest;" vertex="1" parent="7">
                    <mxGeometry y="78" width="210" height="26" as="geometry"/>
                </mxCell>
                <mxCell id="19" value="order: int" style="text;strokeColor=none;fillColor=none;align=left;verticalAlign=top;spacingLeft=4;spacingRight=4;overflow=hidden;rotatable=0;points=[[0,0.5],[1,0.5]];portConstraint=eastwest;" vertex="1" parent="7">
                    <mxGeometry y="104" width="210" height="26" as="geometry"/>
                </mxCell>
                <mxCell id="10" value="status: boolean" style="text;strokeColor=none;fillColor=none;align=left;verticalAlign=top;spacingLeft=4;spacingRight=4;overflow=hidden;rotatable=0;points=[[0,0.5],[1,0.5]];portConstraint=eastwest;" vertex="1" parent="7">
                    <mxGeometry y="130" width="210" height="26" as="geometry"/>
                </mxCell>
                <mxCell id="UClkkZ_xyMGY35_nVusj-25" value="picture: varchar(255)" style="text;strokeColor=none;fillColor=none;align=left;verticalAlign=top;spacingLeft=4;spacingRight=4;overflow=hidden;rotatable=0;points=[[0,0.5],[1,0.5]];portConstraint=eastwest;" vertex="1" parent="7">
                    <mxGeometry y="156" width="210" height="26" as="geometry"/>
                </mxCell>
                <mxCell id="9" value="fk_routine_id: int" style="text;strokeColor=none;fillColor=none;align=left;verticalAlign=top;spacingLeft=4;spacingRight=4;overflow=hidden;rotatable=0;points=[[0,0.5],[1,0.5]];portConstraint=eastwest;fontStyle=2" vertex="1" parent="7">
                    <mxGeometry y="182" width="210" height="26" as="geometry"/>
                </mxCell>
                <mxCell id="11" value="Users Table" style="swimlane;fontStyle=0;childLayout=stackLayout;horizontal=1;startSize=26;fillColor=none;horizontalStack=0;resizeParent=1;resizeParentMax=0;resizeLast=0;collapsible=1;marginBottom=0;" vertex="1" parent="1">
                    <mxGeometry x="470" y="640" width="170" height="182" as="geometry"/>
                </mxCell>
                <mxCell id="12" value="pk_id: int (auto increment)" style="text;strokeColor=none;fillColor=none;align=left;verticalAlign=top;spacingLeft=4;spacingRight=4;overflow=hidden;rotatable=0;points=[[0,0.5],[1,0.5]];portConstraint=eastwest;fontStyle=4" vertex="1" parent="11">
                    <mxGeometry y="26" width="170" height="26" as="geometry"/>
                </mxCell>
                <mxCell id="13" value="username: varchar(255)" style="text;strokeColor=none;fillColor=none;align=left;verticalAlign=top;spacingLeft=4;spacingRight=4;overflow=hidden;rotatable=0;points=[[0,0.5],[1,0.5]];portConstraint=eastwest;" vertex="1" parent="11">
                    <mxGeometry y="52" width="170" height="26" as="geometry"/>
                </mxCell>
                <mxCell id="20" value="email: varchar(255)" style="text;strokeColor=none;fillColor=none;align=left;verticalAlign=top;spacingLeft=4;spacingRight=4;overflow=hidden;rotatable=0;points=[[0,0.5],[1,0.5]];portConstraint=eastwest;" vertex="1" parent="11">
                    <mxGeometry y="78" width="170" height="26" as="geometry"/>
                </mxCell>
                <mxCell id="21" value="points: int" style="text;strokeColor=none;fillColor=none;align=left;verticalAlign=top;spacingLeft=4;spacingRight=4;overflow=hidden;rotatable=0;points=[[0,0.5],[1,0.5]];portConstraint=eastwest;" vertex="1" parent="11">
                    <mxGeometry y="104" width="170" height="26" as="geometry"/>
                </mxCell>
                <mxCell id="UClkkZ_xyMGY35_nVusj-27" value="picture: varchar(255)" style="text;strokeColor=none;fillColor=none;align=left;verticalAlign=top;spacingLeft=4;spacingRight=4;overflow=hidden;rotatable=0;points=[[0,0.5],[1,0.5]];portConstraint=eastwest;" vertex="1" parent="11">
                    <mxGeometry y="130" width="170" height="26" as="geometry"/>
                </mxCell>
                <mxCell id="14" value="password: varchar (255)" style="text;strokeColor=none;fillColor=none;align=left;verticalAlign=top;spacingLeft=4;spacingRight=4;overflow=hidden;rotatable=0;points=[[0,0.5],[1,0.5]];portConstraint=eastwest;" vertex="1" parent="11">
                    <mxGeometry y="156" width="170" height="26" as="geometry"/>
                </mxCell>
                <mxCell id="22" style="edgeStyle=none;html=1;exitX=1;exitY=0.5;exitDx=0;exitDy=0;entryX=0;entryY=0.5;entryDx=0;entryDy=0;startArrow=none;startFill=0;endArrow=ERmany;endFill=0;" edge="1" parent="1" source="24" target="9">
                    <mxGeometry relative="1" as="geometry"/>
                </mxCell>
                <mxCell id="23" style="edgeStyle=none;html=1;exitX=1;exitY=0.5;exitDx=0;exitDy=0;entryX=0;entryY=0.25;entryDx=0;entryDy=0;startArrow=ERmany;startFill=0;endArrow=ERone;endFill=0;" edge="1" parent="1" source="6" target="11">
                    <mxGeometry relative="1" as="geometry"/>
                </mxCell>
                <mxCell id="25" value="many-one" style="html=1;" vertex="1" parent="1">
                    <mxGeometry x="325" y="630" width="70" height="20" as="geometry"/>
                </mxCell>
                <mxCell id="UClkkZ_xyMGY35_nVusj-30" value="" style="edgeStyle=none;html=1;exitX=1;exitY=0.5;exitDx=0;exitDy=0;entryX=0;entryY=0.5;entryDx=0;entryDy=0;startArrow=ERmany;startFill=0;endArrow=none;endFill=0;" edge="1" parent="1" source="3" target="24">
                    <mxGeometry relative="1" as="geometry">
                        <mxPoint x="260" y="509" as="sourcePoint"/>
                        <mxPoint x="450" y="495" as="targetPoint"/>
                    </mxGeometry>
                </mxCell>
                <mxCell id="24" value="many-many" style="html=1;" vertex="1" parent="1">
                    <mxGeometry x="320" y="488" width="80" height="20" as="geometry"/>
                </mxCell>
            </root>
        </mxGraphModel>
    </diagram>
    <diagram id="24B42OQQKQknhEF65XPY" name="db-brainstorming">
        <mxGraphModel dx="1309" dy="725" grid="1" gridSize="10" guides="1" tooltips="1" connect="1" arrows="1" fold="1" page="1" pageScale="1" pageWidth="850" pageHeight="1100" math="0" shadow="0">
            <root>
                <mxCell id="0"/>
                <mxCell id="1" parent="0"/>
                <mxCell id="gxbSb0K-DKR6r2phTlSM-21" style="edgeStyle=none;html=1;entryX=0.5;entryY=0;entryDx=0;entryDy=0;startArrow=none;startFill=0;endArrow=none;endFill=0;" edge="1" parent="1" source="gxbSb0K-DKR6r2phTlSM-1" target="gxbSb0K-DKR6r2phTlSM-2">
                    <mxGeometry relative="1" as="geometry"/>
                </mxCell>
                <mxCell id="gxbSb0K-DKR6r2phTlSM-1" value="user" style="rounded=1;whiteSpace=wrap;html=1;" vertex="1" parent="1">
                    <mxGeometry x="190" y="130" width="120" height="60" as="geometry"/>
                </mxCell>
                <mxCell id="gxbSb0K-DKR6r2phTlSM-24" style="edgeStyle=none;html=1;exitX=1;exitY=0.5;exitDx=0;exitDy=0;entryX=0;entryY=0.5;entryDx=0;entryDy=0;startArrow=none;startFill=0;endArrow=none;endFill=0;" edge="1" parent="1" source="gxbSb0K-DKR6r2phTlSM-2" target="gxbSb0K-DKR6r2phTlSM-3">
                    <mxGeometry relative="1" as="geometry"/>
                </mxCell>
                <mxCell id="gxbSb0K-DKR6r2phTlSM-2" value="routine" style="rounded=1;whiteSpace=wrap;html=1;" vertex="1" parent="1">
                    <mxGeometry x="210" y="420" width="120" height="60" as="geometry"/>
                </mxCell>
                <mxCell id="gxbSb0K-DKR6r2phTlSM-3" value="activity" style="rounded=1;whiteSpace=wrap;html=1;" vertex="1" parent="1">
                    <mxGeometry x="600" y="250" width="120" height="60" as="geometry"/>
                </mxCell>
                <mxCell id="gxbSb0K-DKR6r2phTlSM-26" style="edgeStyle=none;html=1;exitX=1;exitY=1;exitDx=0;exitDy=0;entryX=0;entryY=0;entryDx=0;entryDy=0;startArrow=none;startFill=0;endArrow=none;endFill=0;" edge="1" parent="1" source="gxbSb0K-DKR6r2phTlSM-4" target="gxbSb0K-DKR6r2phTlSM-1">
                    <mxGeometry relative="1" as="geometry"/>
                </mxCell>
                <mxCell id="gxbSb0K-DKR6r2phTlSM-4" value="id" style="ellipse;whiteSpace=wrap;html=1;" vertex="1" parent="1">
                    <mxGeometry x="80" y="70" width="80" height="50" as="geometry"/>
                </mxCell>
                <mxCell id="gxbSb0K-DKR6r2phTlSM-27" style="edgeStyle=none;html=1;exitX=0.5;exitY=1;exitDx=0;exitDy=0;entryX=0.25;entryY=0;entryDx=0;entryDy=0;startArrow=none;startFill=0;endArrow=none;endFill=0;" edge="1" parent="1" source="gxbSb0K-DKR6r2phTlSM-5" target="gxbSb0K-DKR6r2phTlSM-1">
                    <mxGeometry relative="1" as="geometry"/>
                </mxCell>
                <mxCell id="gxbSb0K-DKR6r2phTlSM-5" value="picture????" style="ellipse;whiteSpace=wrap;html=1;" vertex="1" parent="1">
                    <mxGeometry x="160" y="30" width="80" height="50" as="geometry"/>
                </mxCell>
                <mxCell id="gxbSb0K-DKR6r2phTlSM-30" style="edgeStyle=none;html=1;exitX=1;exitY=0.5;exitDx=0;exitDy=0;entryX=0;entryY=0.5;entryDx=0;entryDy=0;startArrow=none;startFill=0;endArrow=none;endFill=0;" edge="1" parent="1" source="gxbSb0K-DKR6r2phTlSM-6" target="gxbSb0K-DKR6r2phTlSM-1">
                    <mxGeometry relative="1" as="geometry"/>
                </mxCell>
                <mxCell id="gxbSb0K-DKR6r2phTlSM-6" value="username" style="ellipse;whiteSpace=wrap;html=1;" vertex="1" parent="1">
                    <mxGeometry x="70" y="140" width="80" height="50" as="geometry"/>
                </mxCell>
                <mxCell id="gxbSb0K-DKR6r2phTlSM-31" style="edgeStyle=none;html=1;exitX=1;exitY=0;exitDx=0;exitDy=0;entryX=0;entryY=1;entryDx=0;entryDy=0;startArrow=none;startFill=0;endArrow=none;endFill=0;" edge="1" parent="1" source="gxbSb0K-DKR6r2phTlSM-7" target="gxbSb0K-DKR6r2phTlSM-1">
                    <mxGeometry relative="1" as="geometry"/>
                </mxCell>
                <mxCell id="gxbSb0K-DKR6r2phTlSM-7" value="password" style="ellipse;whiteSpace=wrap;html=1;" vertex="1" parent="1">
                    <mxGeometry x="110" y="200" width="70" height="40" as="geometry"/>
                </mxCell>
                <mxCell id="gxbSb0K-DKR6r2phTlSM-28" style="edgeStyle=none;html=1;exitX=0.5;exitY=1;exitDx=0;exitDy=0;entryX=0.5;entryY=0;entryDx=0;entryDy=0;startArrow=none;startFill=0;endArrow=none;endFill=0;" edge="1" parent="1" source="gxbSb0K-DKR6r2phTlSM-8" target="gxbSb0K-DKR6r2phTlSM-1">
                    <mxGeometry relative="1" as="geometry"/>
                </mxCell>
                <mxCell id="gxbSb0K-DKR6r2phTlSM-8" value="email" style="ellipse;whiteSpace=wrap;html=1;" vertex="1" parent="1">
                    <mxGeometry x="260" y="40" width="80" height="50" as="geometry"/>
                </mxCell>
                <mxCell id="gxbSb0K-DKR6r2phTlSM-29" style="edgeStyle=none;html=1;exitX=0;exitY=1;exitDx=0;exitDy=0;entryX=1;entryY=0.25;entryDx=0;entryDy=0;startArrow=none;startFill=0;endArrow=none;endFill=0;" edge="1" parent="1" source="gxbSb0K-DKR6r2phTlSM-9" target="gxbSb0K-DKR6r2phTlSM-1">
                    <mxGeometry relative="1" as="geometry"/>
                </mxCell>
                <mxCell id="gxbSb0K-DKR6r2phTlSM-9" value="points" style="ellipse;whiteSpace=wrap;html=1;" vertex="1" parent="1">
                    <mxGeometry x="330" y="90" width="80" height="50" as="geometry"/>
                </mxCell>
                <mxCell id="gxbSb0K-DKR6r2phTlSM-36" style="edgeStyle=none;html=1;exitX=0.5;exitY=1;exitDx=0;exitDy=0;entryX=0.25;entryY=0;entryDx=0;entryDy=0;startArrow=none;startFill=0;endArrow=none;endFill=0;" edge="1" parent="1" source="gxbSb0K-DKR6r2phTlSM-10" target="gxbSb0K-DKR6r2phTlSM-3">
                    <mxGeometry relative="1" as="geometry"/>
                </mxCell>
                <mxCell id="gxbSb0K-DKR6r2phTlSM-10" value="id" style="ellipse;whiteSpace=wrap;html=1;" vertex="1" parent="1">
                    <mxGeometry x="570" y="170" width="90" height="50" as="geometry"/>
                </mxCell>
                <mxCell id="gxbSb0K-DKR6r2phTlSM-37" style="edgeStyle=none;html=1;exitX=0.5;exitY=1;exitDx=0;exitDy=0;entryX=0.75;entryY=0;entryDx=0;entryDy=0;startArrow=none;startFill=0;endArrow=none;endFill=0;" edge="1" parent="1" source="gxbSb0K-DKR6r2phTlSM-11" target="gxbSb0K-DKR6r2phTlSM-3">
                    <mxGeometry relative="1" as="geometry"/>
                </mxCell>
                <mxCell id="gxbSb0K-DKR6r2phTlSM-11" value="name" style="ellipse;whiteSpace=wrap;html=1;" vertex="1" parent="1">
                    <mxGeometry x="680" y="145" width="80" height="40" as="geometry"/>
                </mxCell>
                <mxCell id="gxbSb0K-DKR6r2phTlSM-39" style="edgeStyle=none;html=1;exitX=0;exitY=0.5;exitDx=0;exitDy=0;entryX=1;entryY=0.5;entryDx=0;entryDy=0;startArrow=none;startFill=0;endArrow=none;endFill=0;" edge="1" parent="1" source="gxbSb0K-DKR6r2phTlSM-12" target="gxbSb0K-DKR6r2phTlSM-3">
                    <mxGeometry relative="1" as="geometry"/>
                </mxCell>
                <mxCell id="gxbSb0K-DKR6r2phTlSM-12" value="duration" style="ellipse;whiteSpace=wrap;html=1;" vertex="1" parent="1">
                    <mxGeometry x="760" y="250" width="100" height="40" as="geometry"/>
                </mxCell>
                <mxCell id="gxbSb0K-DKR6r2phTlSM-40" style="edgeStyle=none;html=1;exitX=0;exitY=0;exitDx=0;exitDy=0;entryX=1;entryY=1;entryDx=0;entryDy=0;startArrow=none;startFill=0;endArrow=none;endFill=0;" edge="1" parent="1" source="gxbSb0K-DKR6r2phTlSM-13" target="gxbSb0K-DKR6r2phTlSM-3">
                    <mxGeometry relative="1" as="geometry"/>
                </mxCell>
                <mxCell id="gxbSb0K-DKR6r2phTlSM-13" value="order" style="ellipse;whiteSpace=wrap;html=1;" vertex="1" parent="1">
                    <mxGeometry x="740" y="320" width="90" height="50" as="geometry"/>
                </mxCell>
                <mxCell id="gxbSb0K-DKR6r2phTlSM-41" style="edgeStyle=none;html=1;exitX=0.5;exitY=0;exitDx=0;exitDy=0;entryX=0.75;entryY=1;entryDx=0;entryDy=0;startArrow=none;startFill=0;endArrow=none;endFill=0;" edge="1" parent="1" source="gxbSb0K-DKR6r2phTlSM-14" target="gxbSb0K-DKR6r2phTlSM-3">
                    <mxGeometry relative="1" as="geometry"/>
                </mxCell>
                <mxCell id="gxbSb0K-DKR6r2phTlSM-14" value="status (completet / open)" style="ellipse;whiteSpace=wrap;html=1;" vertex="1" parent="1">
                    <mxGeometry x="630" y="340" width="110" height="60" as="geometry"/>
                </mxCell>
                <mxCell id="gxbSb0K-DKR6r2phTlSM-38" style="edgeStyle=none;html=1;exitX=0;exitY=1;exitDx=0;exitDy=0;entryX=1;entryY=0.25;entryDx=0;entryDy=0;startArrow=none;startFill=0;endArrow=none;endFill=0;" edge="1" parent="1" source="gxbSb0K-DKR6r2phTlSM-15" target="gxbSb0K-DKR6r2phTlSM-3">
                    <mxGeometry relative="1" as="geometry"/>
                </mxCell>
                <mxCell id="gxbSb0K-DKR6r2phTlSM-15" value="picture????" style="ellipse;whiteSpace=wrap;html=1;" vertex="1" parent="1">
                    <mxGeometry x="770" y="170" width="90" height="50" as="geometry"/>
                </mxCell>
                <mxCell id="gxbSb0K-DKR6r2phTlSM-32" style="edgeStyle=none;html=1;exitX=1;exitY=0.5;exitDx=0;exitDy=0;entryX=0;entryY=0;entryDx=0;entryDy=0;startArrow=none;startFill=0;endArrow=none;endFill=0;" edge="1" parent="1" source="gxbSb0K-DKR6r2phTlSM-16" target="gxbSb0K-DKR6r2phTlSM-2">
                    <mxGeometry relative="1" as="geometry"/>
                </mxCell>
                <mxCell id="gxbSb0K-DKR6r2phTlSM-16" value="id" style="ellipse;whiteSpace=wrap;html=1;" vertex="1" parent="1">
                    <mxGeometry x="105" y="360" width="80" height="40" as="geometry"/>
                </mxCell>
                <mxCell id="gxbSb0K-DKR6r2phTlSM-33" style="edgeStyle=none;html=1;exitX=1;exitY=0.5;exitDx=0;exitDy=0;entryX=0;entryY=0.5;entryDx=0;entryDy=0;startArrow=none;startFill=0;endArrow=none;endFill=0;" edge="1" parent="1" source="gxbSb0K-DKR6r2phTlSM-17" target="gxbSb0K-DKR6r2phTlSM-2">
                    <mxGeometry relative="1" as="geometry"/>
                </mxCell>
                <mxCell id="gxbSb0K-DKR6r2phTlSM-17" value="name" style="ellipse;whiteSpace=wrap;html=1;" vertex="1" parent="1">
                    <mxGeometry x="90" y="440" width="80" height="50" as="geometry"/>
                </mxCell>
                <mxCell id="gxbSb0K-DKR6r2phTlSM-34" style="edgeStyle=none;html=1;exitX=0.5;exitY=0;exitDx=0;exitDy=0;entryX=0.095;entryY=0.985;entryDx=0;entryDy=0;entryPerimeter=0;startArrow=none;startFill=0;endArrow=none;endFill=0;" edge="1" parent="1" source="gxbSb0K-DKR6r2phTlSM-18" target="gxbSb0K-DKR6r2phTlSM-2">
                    <mxGeometry relative="1" as="geometry"/>
                </mxCell>
                <mxCell id="gxbSb0K-DKR6r2phTlSM-18" value="activity list" style="ellipse;whiteSpace=wrap;html=1;" vertex="1" parent="1">
                    <mxGeometry x="150" y="510" width="80" height="50" as="geometry"/>
                </mxCell>
                <mxCell id="gxbSb0K-DKR6r2phTlSM-35" style="edgeStyle=none;html=1;exitX=0;exitY=0;exitDx=0;exitDy=0;entryX=0.25;entryY=1;entryDx=0;entryDy=0;startArrow=none;startFill=0;endArrow=none;endFill=0;" edge="1" parent="1" source="gxbSb0K-DKR6r2phTlSM-20" target="gxbSb0K-DKR6r2phTlSM-2">
                    <mxGeometry relative="1" as="geometry"/>
                </mxCell>
                <mxCell id="gxbSb0K-DKR6r2phTlSM-20" value="picture????" style="ellipse;whiteSpace=wrap;html=1;" vertex="1" parent="1">
                    <mxGeometry x="280" y="510" width="80" height="50" as="geometry"/>
                </mxCell>
                <mxCell id="gxbSb0K-DKR6r2phTlSM-22" value="has" style="rhombus;whiteSpace=wrap;html=1;" vertex="1" parent="1">
                    <mxGeometry x="235" y="260" width="70" height="60" as="geometry"/>
                </mxCell>
                <mxCell id="gxbSb0K-DKR6r2phTlSM-25" value="is part of" style="rhombus;whiteSpace=wrap;html=1;" vertex="1" parent="1">
                    <mxGeometry x="410" y="330" width="80" height="80" as="geometry"/>
                </mxCell>
            </root>
        </mxGraphModel>
    </diagram>
</mxfile>